<svg class="diagram-root" style="background: #f5f6f6" xmlns="http://www.w3.org/2000/svg" xmlns:xlink="http://www.w3.org/1999/xlink"><style>.diagram-root { font-family: "Helvetica Neue", sans-serif; font-size: 12px; } .t { overflow: visible; } .t-bg { y: 40; fill: #fff;   } .th { fill: #005aa0;   } .tht { fill: #fff; font-size: 14px;  } .tf { fill: #323c46; overflow: visible; } .tf.pk { fill: #005aa0; font-weight: bold; } .tf.fk { font-weight: bold; } .ty { fill: #adb1b5; font-weight: normal; text-anchor: end; } .r { fill: transparent; stroke: #c3c3c3; stroke-width: 1; } .l { stroke: 1; } .i { fill: #c2c7ce; stroke: #c2c7ce; } .i.ix { fill: #afb3b6; stroke: #000; } .fa { fill: transparent; overflow: visible; } .fa .bg.hover { fill: #f7f7f7; } .c { cy: 12; r: 4; stroke: #d2d2dc; fill: #d2d2dc; } .hr { fill: transparent; stroke: #323c46; stroke-opacity: 0.035; stroke-width: 13; } .dc { stroke: #fa5a3c; fill: #fa5a3c; } .x { stroke: white; stroke-width: 1; } .hl .th { fill: #1b9bff; } .hl .tht {  } .fhl .bg { fill: #e7f4ff; } .fhls .bg {  } .r.hl { stroke: #1b9bff; } .dim { opacity: 0.25; }</style><g class="drawing-wrapper" transform="translate(2, 18) scale(1,1)"><g class="rs"><path d="M 729.68 93.75 m -1, 0 a 1,1 0 1,0 2,0 a 1,1 0 1,0 -2,0 M 729.68 93.75 m -0.5, 0 a 0.5,0.5 0 1,0 1,0 a 0.5,0.5 0 1,0 -1,0  M729.68 93.75 L729.68 93.75 741.68 93.75 M 729.68 99.75 m -1, 0 a 1,1 0 1,0 2,0 a 1,1 0 1,0 -2,0 M 729.68 99.75 m -0.5, 0 a 0.5,0.5 0 1,0 1,0 a 0.5,0.5 0 1,0 -1,0  M729.68 99.75 L729.68 99.75 736.68 93.75 729.68 87.75 M 729.68 87.75 m -1, 0 a 1,1 0 1,0 2,0 a 1,1 0 1,0 -2,0 M 729.68 87.75 m -0.5, 0 a 0.5,0.5 0 1,0 1,0 a 0.5,0.5 0 1,0 -1,0  M741.68 93.75 C 791.68 93.75, 934.2819999999999 492.25, 504.01 492.25 M 492.01 492.25 m -1, 0 a 1,1 0 1,0 2,0 a 1,1 0 1,0 -2,0 M 492.01 492.25 m -0.5, 0 a 0.5,0.5 0 1,0 1,0 a 0.5,0.5 0 1,0 -1,0  M492.01 492.25 L492.01 492.25 504.01 492.25 M498.01 498.25 L498.01 498.25 498.01 486.25" id="h1736270986" class="r"></path><path d="M 554.5 118.75 m -1, 0 a 1,1 0 1,0 2,0 a 1,1 0 1,0 -2,0 M 554.5 118.75 m -0.5, 0 a 0.5,0.5 0 1,0 1,0 a 0.5,0.5 0 1,0 -1,0  M554.5 118.75 L554.5 118.75 542.5 118.75 M 554.5 124.75 m -1, 0 a 1,1 0 1,0 2,0 a 1,1 0 1,0 -2,0 M 554.5 124.75 m -0.5, 0 a 0.5,0.5 0 1,0 1,0 a 0.5,0.5 0 1,0 -1,0  M554.5 124.75 L554.5 124.75 547.5 118.75 554.5 112.75 M 554.5 112.75 m -1, 0 a 1,1 0 1,0 2,0 a 1,1 0 1,0 -2,0 M 554.5 112.75 m -0.5, 0 a 0.5,0.5 0 1,0 1,0 a 0.5,0.5 0 1,0 -1,0  M542.5 118.75 Q 466.17 118.75, 389.84 102.88 T 237.18 87 M 225.18 87 m -1, 0 a 1,1 0 1,0 2,0 a 1,1 0 1,0 -2,0 M 225.18 87 m -0.5, 0 a 0.5,0.5 0 1,0 1,0 a 0.5,0.5 0 1,0 -1,0  M225.18 87 L225.18 87 237.18 87 M231.18 93 L231.18 93 231.18 81" id="h3233325729" class="r"></path><path d="M 556 245.5 m -1, 0 a 1,1 0 1,0 2,0 a 1,1 0 1,0 -2,0 M 556 245.5 m -0.5, 0 a 0.5,0.5 0 1,0 1,0 a 0.5,0.5 0 1,0 -1,0  M556 245.5 L556 245.5 544 245.5 M 556 251.5 m -1, 0 a 1,1 0 1,0 2,0 a 1,1 0 1,0 -2,0 M 556 251.5 m -0.5, 0 a 0.5,0.5 0 1,0 1,0 a 0.5,0.5 0 1,0 -1,0  M556 251.5 L556 251.5 549 245.5 556 239.5 M 556 239.5 m -1, 0 a 1,1 0 1,0 2,0 a 1,1 0 1,0 -2,0 M 556 239.5 m -0.5, 0 a 0.5,0.5 0 1,0 1,0 a 0.5,0.5 0 1,0 -1,0  M544 245.5 Q 467.29 245.5, 390.59 166.25 T 237.18 87 M 225.18 87 m -1, 0 a 1,1 0 1,0 2,0 a 1,1 0 1,0 -2,0 M 225.18 87 m -0.5, 0 a 0.5,0.5 0 1,0 1,0 a 0.5,0.5 0 1,0 -1,0  M225.18 87 L225.18 87 237.18 87 M231.18 93 L231.18 93 231.18 81" id="h1248694035" class="r"></path><path d="M 731.18 270.5 m -1, 0 a 1,1 0 1,0 2,0 a 1,1 0 1,0 -2,0 M 731.18 270.5 m -0.5, 0 a 0.5,0.5 0 1,0 1,0 a 0.5,0.5 0 1,0 -1,0  M731.18 270.5 L731.18 270.5 743.18 270.5 M 731.18 276.5 m -1, 0 a 1,1 0 1,0 2,0 a 1,1 0 1,0 -2,0 M 731.18 276.5 m -0.5, 0 a 0.5,0.5 0 1,0 1,0 a 0.5,0.5 0 1,0 -1,0  M731.18 276.5 L731.18 276.5 738.18 270.5 731.18 264.5 M 731.18 264.5 m -1, 0 a 1,1 0 1,0 2,0 a 1,1 0 1,0 -2,0 M 731.18 264.5 m -0.5, 0 a 0.5,0.5 0 1,0 1,0 a 0.5,0.5 0 1,0 -1,0  M743.18 270.5 C 793.18 270.5, 936.682 492.25, 504.01 492.25 M 492.01 492.25 m -1, 0 a 1,1 0 1,0 2,0 a 1,1 0 1,0 -2,0 M 492.01 492.25 m -0.5, 0 a 0.5,0.5 0 1,0 1,0 a 0.5,0.5 0 1,0 -1,0  M492.01 492.25 L492.01 492.25 504.01 492.25 M498.01 498.25 L498.01 498.25 498.01 486.25" id="h1130742295" class="r"></path><path d="M 295.5 517.25 m -1, 0 a 1,1 0 1,0 2,0 a 1,1 0 1,0 -2,0 M 295.5 517.25 m -0.5, 0 a 0.5,0.5 0 1,0 1,0 a 0.5,0.5 0 1,0 -1,0  M295.5 517.25 L295.5 517.25 283.5 517.25 M 295.5 523.25 m -1, 0 a 1,1 0 1,0 2,0 a 1,1 0 1,0 -2,0 M 295.5 523.25 m -0.5, 0 a 0.5,0.5 0 1,0 1,0 a 0.5,0.5 0 1,0 -1,0  M295.5 523.25 L295.5 523.25 288.5 517.25 295.5 511.25 M 295.5 511.25 m -1, 0 a 1,1 0 1,0 2,0 a 1,1 0 1,0 -2,0 M 295.5 511.25 m -0.5, 0 a 0.5,0.5 0 1,0 1,0 a 0.5,0.5 0 1,0 -1,0  M283.5 517.25 C -184.5 517.25, -27.75 245.75, 22.25 245.75 M 34.25 245.75 m -1, 0 a 1,1 0 1,0 2,0 a 1,1 0 1,0 -2,0 M 34.25 245.75 m -0.5, 0 a 0.5,0.5 0 1,0 1,0 a 0.5,0.5 0 1,0 -1,0  M34.25 245.75 L34.25 245.75 22.25 245.75 M28.25 251.75 L28.25 251.75 28.25 239.75" id="h133153459" class="r"></path><path d="M 101.25 383.5 m -1, 0 a 1,1 0 1,0 2,0 a 1,1 0 1,0 -2,0 M 101.25 383.5 m -0.5, 0 a 0.5,0.5 0 1,0 1,0 a 0.5,0.5 0 1,0 -1,0  M101.25 383.5 L101.25 383.5 89.25 383.5 M 101.25 389.5 m -1, 0 a 1,1 0 1,0 2,0 a 1,1 0 1,0 -2,0 M 101.25 389.5 m -0.5, 0 a 0.5,0.5 0 1,0 1,0 a 0.5,0.5 0 1,0 -1,0  M101.25 389.5 L101.25 389.5 94.25 383.5 101.25 377.5 M 101.25 377.5 m -1, 0 a 1,1 0 1,0 2,0 a 1,1 0 1,0 -2,0 M 101.25 377.5 m -0.5, 0 a 0.5,0.5 0 1,0 1,0 a 0.5,0.5 0 1,0 -1,0  M89.25 383.5 C 39.25 383.5, -77.30000000000001 492.25, 283.5 492.25 M 295.5 492.25 m -1, 0 a 1,1 0 1,0 2,0 a 1,1 0 1,0 -2,0 M 295.5 492.25 m -0.5, 0 a 0.5,0.5 0 1,0 1,0 a 0.5,0.5 0 1,0 -1,0  M295.5 492.25 L295.5 492.25 283.5 492.25 M289.5 498.25 L289.5 498.25 289.5 486.25" id="h221257298" class="r"></path></g><g class="hrs"></g><g class="ts"><svg width="195.18" height="100" x="30" y="30" id="h3708248841" class="t"><rect height="40" width="195.18" class="th"></rect><text x="13" y="25" class="tht">Departments</text><rect height="60" width="195.18" class="t-bg" y="40"></rect><text x="13" y="61" class="tf pk">dept_no<tspan x="182.18" class="ty">VARCHAR(255)</tspan></text><path d="M7,14A2,2 0 0,1 5,12A2,2 0 0,1 7,10A2,2 0 0,1 9,12A2,2 0 0,1 7,14M12.65,10C11.83,7.67 9.61,6 7, 6A6, 6 0 0, 0 1, 12A6, 6 0 0, 0 7, 18C9.61, 18 11.83, 16.33 12.65, 14H17V18H21V14H23V10H12.65Z" class="i pk" transform="translate(76.3753125, 48) scale(0.65)"></path><text x="13" y="86" class="tf">dept_name<tspan x="182.18" class="ty">VARCHAR(255)</tspan></text></svg><svg width="175.18" height="100" x="554.5" y="36.75" id="h4086156755" class="t"><rect height="40" width="175.18" class="th"></rect><text x="13" y="25" class="tht">Dept_emp</text><rect height="60" width="175.18" class="t-bg" y="40"></rect><text x="13" y="61" class="tf fk">emp_no<tspan x="162.18" class="ty">INT</tspan></text><text x="13" y="86" class="tf fk">dept_no<tspan x="162.18" class="ty">VARCHAR(255)</tspan></text></svg><svg width="175.18" height="100" x="556" y="188.5" id="h754932316" class="t"><rect height="40" width="175.18" class="th"></rect><text x="13" y="25" class="tht">Dept_Manager</text><rect height="60" width="175.18" class="t-bg" y="40"></rect><text x="13" y="61" class="tf fk">dept_no<tspan x="162.18" class="ty">VARCHAR(255)</tspan></text><text x="13" y="86" class="tf fk">emp_no<tspan x="162.18" class="ty">INT</tspan></text></svg><svg width="186.49" height="100" x="34.25" y="188.75" id="h3517680912" class="t"><rect height="40" width="186.49" class="th"></rect><text x="13" y="25" class="tht">Titles</text><rect height="60" width="186.49" class="t-bg" y="40"></rect><text x="13" y="61" class="tf pk">title_id<tspan x="173.49" class="ty">VARCHAR(255)</tspan></text><path d="M7,14A2,2 0 0,1 5,12A2,2 0 0,1 7,10A2,2 0 0,1 9,12A2,2 0 0,1 7,14M12.65,10C11.83,7.67 9.61,6 7, 6A6, 6 0 0, 0 1, 12A6, 6 0 0, 0 7, 18C9.61, 18 11.83, 16.33 12.65, 14H17V18H21V14H23V10H12.65Z" class="i pk" transform="translate(67.68531250000001, 48) scale(0.65)"></path><text x="13" y="86" class="tf">title<tspan x="173.49" class="ty">VARCHAR(255)</tspan></text></svg><svg width="117.34" height="100" x="101.25" y="326.5" id="h3858243705" class="t"><rect height="40" width="117.34" class="th"></rect><text x="13" y="25" class="tht">Salaries</text><rect height="60" width="117.34" class="t-bg" y="40"></rect><text x="13" y="61" class="tf fk">emp_no<tspan x="104.34" class="ty">INT</tspan></text><text x="13" y="86" class="tf pk">salary<tspan x="104.34" class="ty">INT</tspan></text><path d="M7,14A2,2 0 0,1 5,12A2,2 0 0,1 7,10A2,2 0 0,1 9,12A2,2 0 0,1 7,14M12.65,10C11.83,7.67 9.61,6 7, 6A6, 6 0 0, 0 1, 12A6, 6 0 0, 0 7, 18C9.61, 18 11.83, 16.33 12.65, 14H17V18H21V14H23V10H12.65Z" class="i pk" transform="translate(65.009921875, 73) scale(0.65)"></path></svg><svg width="196.51" height="225" x="295.5" y="435.25" id="h3299212598" class="t"><rect height="40" width="196.51" class="th"></rect><text x="13" y="25" class="tht">Employees</text><rect height="185" width="196.51" class="t-bg" y="40"></rect><text x="13" y="61" class="tf pk">emp_no<tspan x="183.51" class="ty">INT</tspan></text><path d="M7,14A2,2 0 0,1 5,12A2,2 0 0,1 7,10A2,2 0 0,1 9,12A2,2 0 0,1 7,14M12.65,10C11.83,7.67 9.61,6 7, 6A6, 6 0 0, 0 1, 12A6, 6 0 0, 0 7, 18C9.61, 18 11.83, 16.33 12.65, 14H17V18H21V14H23V10H12.65Z" class="i pk" transform="translate(144.179921875, 48) scale(0.65)"></path><text x="13" y="86" class="tf fk">emp_title_id<tspan x="183.51" class="ty">VARCHAR(255)</tspan></text><text x="13" y="111" class="tf">birth_date<tspan x="183.51" class="ty">DATE</tspan></text><text x="13" y="136" class="tf">first_name<tspan x="183.51" class="ty">VARCHAR(255)</tspan></text><text x="13" y="161" class="tf">last_name<tspan x="183.51" class="ty">VARCHAR(255)</tspan></text><text x="13" y="186" class="tf">sex<tspan x="183.51" class="ty">VARCHAR(255)</tspan></text><text x="13" y="211" class="tf">hire_date<tspan x="183.51" class="ty">DATE</tspan></text></svg></g></g><text class="qdbd-link" x="10" y="20">www.quickdatabasediagrams.com</text></svg>